<svg width="195" height="39" viewBox="0 0 195 39" fill="none" xmlns="http://www.w3.org/2000/svg">
<path d="M4.54401 32.1602C1.18401 32.1602 0.0320129 30.8482 0.0320129 28.8642V26.2082C1.29379e-05 26.0482 1.29379e-05 25.8562 1.29379e-05 25.6642C1.29379e-05 24.6082 0.352013 23.6482 0.992013 22.7522C1.79201 16.4482 2.24001 10.5602 2.36801 3.93615C2.40001 1.53615 3.74401 0.000150681 6.36801 0.000150681C8.70401 0.000150681 10.24 1.08815 11.264 3.32815L15.456 12.5122L19.648 3.32815C20.672 1.08815 22.208 0.000150681 24.544 0.000150681C27.168 0.000150681 28.512 1.53615 28.544 3.93615C28.672 10.5602 29.12 16.4482 29.92 22.7522C30.56 23.6482 30.912 24.6082 30.912 25.6642C30.912 25.8562 30.912 26.0482 30.88 26.2082V28.8642C30.88 30.8482 29.728 32.1602 26.368 32.1602C22.528 32.1602 21.024 30.5282 20.832 27.5842C20.704 25.5682 20.704 27.2322 20.672 24.1922L19.392 28.5762C18.816 30.4642 17.504 31.2322 15.456 31.2322C13.408 31.2322 12.096 30.4642 11.52 28.5762L10.24 24.1922L10.08 27.5842C9.85601 30.4642 8.32001 32.1602 4.54401 32.1602ZM4.54401 28.3202C7.93601 28.3202 9.28001 26.9122 9.44001 24.3522C9.56801 22.3362 9.63201 19.8722 9.66401 16.8322L12.128 25.1842C12.608 26.7522 13.728 27.3922 15.456 27.3922C17.184 27.3922 18.304 26.7522 18.784 25.1842L21.248 16.8322C21.28 19.8722 21.344 22.3362 21.472 24.3522C21.632 26.9122 22.976 28.3202 26.368 28.3202C29.248 28.3202 30.24 27.2642 30.24 25.6642C30.24 24.7042 29.92 23.8402 29.28 23.0082C28.448 16.6082 28 10.6562 27.872 3.93615C27.84 1.95215 26.72 0.672152 24.544 0.672152C22.496 0.672152 21.152 1.63215 20.256 3.61615L15.456 14.1122L10.656 3.61615C9.76001 1.63215 8.41601 0.672152 6.36801 0.672152C4.19201 0.672152 3.07201 1.95215 3.04001 3.93615C2.91201 10.6562 2.46401 16.6082 1.63201 23.0082C0.992013 23.8402 0.672013 24.7042 0.672013 25.6642C0.672013 27.2642 1.66401 28.3202 4.54401 28.3202ZM40.6678 32.1602C34.2998 32.1602 31.1958 29.7602 31.1958 25.0562V22.6562C31.1638 22.4002 31.1638 22.1442 31.1638 21.8562C31.1638 20.0642 31.6118 18.5922 32.5078 17.4722L32.1238 16.7362C31.9318 16.1922 31.8038 15.6802 31.8038 15.2002V12.4482L31.7718 12.0002C31.7718 10.4322 32.7958 9.15215 34.6518 8.32015C37.1798 7.20015 38.9718 6.72015 42.2358 6.72015C48.0918 6.72015 51.6438 10.1762 51.6438 16.1602C51.6438 19.0402 51.7718 20.2882 52.0598 22.7522C52.6998 23.6482 53.0518 24.5122 53.0518 25.5682C53.0518 25.7602 53.0518 25.9202 53.0198 26.1122V28.7682C53.0198 30.7522 51.8038 32.1602 48.4438 32.1602C47.0678 32.1602 45.9478 31.9042 45.1158 31.4882C43.8358 31.9362 42.3958 32.1602 40.6678 32.1602ZM40.6678 28.3202C42.4278 28.3202 43.9318 28.0642 45.1478 27.5842C45.9478 28.0642 47.0358 28.3202 48.4438 28.3202C51.3238 28.3202 52.3798 27.1682 52.3798 25.5682C52.3798 24.6082 52.0598 23.8402 51.4198 23.0082C51.0998 20.4482 50.9718 19.1042 50.9718 16.1602C50.9718 10.5922 47.6758 7.39215 42.2358 7.39215C39.0998 7.39215 37.3718 7.84015 34.9398 8.92815C32.8278 9.88815 31.9638 11.4242 32.7318 13.2802C33.4038 14.9442 34.4598 15.3602 36.1878 14.6882C38.1718 13.9202 39.5158 13.6002 41.0518 13.6002C42.4598 13.6002 43.1958 14.1442 43.4518 15.6482C42.6198 15.4882 41.6918 15.3922 40.6678 15.3922C34.7158 15.3922 31.8358 17.5682 31.8358 21.8562C31.8358 26.1442 34.7158 28.3202 40.6678 28.3202ZM41.3078 23.4562C39.9638 23.4562 39.1958 22.9122 39.1958 21.6962C39.1958 20.4802 39.9638 19.9362 41.3078 19.9362C42.6518 19.9362 43.4198 20.4802 43.4198 21.6962C43.4198 22.9122 42.6518 23.4562 41.3078 23.4562ZM57.48 38.4962C54.184 38.4962 53.032 37.0882 53.032 35.1042V32.4482C53 32.2882 53 32.0962 53 31.9042C53 30.8482 53.352 29.9842 53.992 29.0882C54.408 25.2802 54.568 21.5042 54.568 17.8242L54.44 13.8882V11.2322L54.408 10.6882C54.408 8.12815 55.56 6.72015 58.216 6.72015C59.432 6.72015 60.392 7.07215 61.128 7.74415C62.376 7.07215 63.848 6.72015 65.576 6.72015C71.432 6.72015 75.304 10.7202 75.304 17.8562C75.304 18.2402 75.304 18.5922 75.272 18.9442V21.0562C75.272 28.1922 71.4 32.1602 65.576 32.1602C64.712 32.1602 63.912 32.0642 63.176 31.9042L63.08 33.9202C62.92 36.8642 61.224 38.4962 57.48 38.4962ZM57.48 34.6562C60.808 34.6562 62.312 33.2482 62.44 30.6882L62.568 27.8722C63.464 28.1602 64.456 28.3202 65.576 28.3202C71.016 28.3202 74.632 24.5762 74.632 17.8562C74.632 11.1362 71.016 7.39215 65.576 7.39215C63.752 7.39215 62.216 7.80815 61 8.60815C60.392 7.80815 59.464 7.39215 58.216 7.39215C55.976 7.39215 54.984 8.67215 55.08 10.6562C55.368 16.7362 55.336 22.9442 54.632 29.3442C53.992 30.1762 53.672 30.9442 53.672 31.9042C53.672 33.5042 54.664 34.6562 57.48 34.6562ZM64.936 21.6002C63.4 21.6002 62.6 20.3522 62.6 17.8562C62.6 15.3602 63.4 14.1122 64.936 14.1122C66.472 14.1122 67.272 15.3602 67.272 17.8562C67.272 20.3522 66.472 21.6002 64.936 21.6002ZM64.936 20.9282C65.704 20.9282 66.216 20.4162 66.44 19.3922C66.216 18.4322 65.704 17.9522 64.936 17.9522C64.168 17.9522 63.656 18.4322 63.432 19.3922C63.656 20.4162 64.168 20.9282 64.936 20.9282ZM80.0425 32.1602C76.7465 32.1602 75.5945 30.7522 75.5945 28.7682V26.1122C75.5625 25.9522 75.5625 25.7602 75.5625 25.5682C75.5625 24.5122 75.9145 23.6482 76.5545 22.7522C76.9705 18.9122 77.1305 14.9762 77.1305 11.1362L77.0025 7.16815V4.51215L76.9705 3.96815C76.9705 1.40815 78.1225 0.000150681 80.7785 0.000150681C83.2105 0.000150681 84.6505 1.37615 84.9705 3.84015C85.5145 8.44815 85.8345 13.1522 85.8345 18.1762L85.8025 20.8962V21.3762C85.8025 23.3602 85.7385 25.4722 85.6425 27.5842C85.4825 30.5282 83.7865 32.1602 80.0425 32.1602ZM80.0425 28.3202C83.3705 28.3202 84.8745 26.9122 85.0025 24.3522C85.3865 16.9922 85.0665 10.3362 84.2985 3.93615C84.0425 1.82415 82.8265 0.672152 80.7785 0.672152C78.5385 0.672152 77.5465 1.95215 77.6425 3.93615C77.9305 10.0162 77.8985 16.6082 77.1945 23.0082C76.5545 23.8402 76.2345 24.6082 76.2345 25.5682C76.2345 27.1682 77.2265 28.3202 80.0425 28.3202ZM97.6338 32.1602C91.0418 32.1602 86.9458 28.1922 86.9458 21.0562V18.9122C86.9138 18.5922 86.9138 18.2082 86.9138 17.8562C86.9138 16.5762 87.0418 15.3922 87.2978 14.3362C86.9458 13.7922 86.7218 13.1842 86.7218 12.5762V9.79215L86.6898 9.37615C86.6898 8.96015 86.7858 8.57615 86.9138 8.19215V8.22415C87.3938 6.91215 88.6738 6.08015 90.1458 6.08015C90.5938 6.08015 91.1058 6.17615 91.5858 6.33615C92.1938 6.59215 92.7698 6.97615 93.1858 7.42415C94.4658 6.94415 95.8738 6.72015 97.4418 6.72015C103.266 6.72015 107.362 9.44015 107.362 14.6882C107.362 14.9442 107.362 15.2002 107.33 15.4242V17.8882C107.33 19.2322 107.042 20.4162 106.402 21.3442C107.042 22.2722 107.138 22.9442 107.138 24.0002V26.7522C107.138 27.5842 106.786 28.3842 106.146 29.1522C104.482 31.0722 101.762 32.1602 97.6338 32.1602ZM97.6338 28.3202C101.602 28.3202 104.13 27.3602 105.666 25.5362C106.754 24.2562 106.786 22.8802 105.634 21.4722C104.642 20.2882 103.234 20.1922 101.89 20.9602C100.674 21.6642 99.4258 22.0482 97.8898 22.0482C96.4178 22.0482 95.4898 21.4722 95.1058 19.7762C96.1618 20.1282 97.2498 20.2562 98.7218 20.2562C104.482 20.2562 106.69 18.1442 106.69 14.6882C106.69 9.88815 102.882 7.39215 97.4418 7.39215C95.7778 7.39215 94.2738 7.68015 92.9938 8.22415C92.5778 7.68015 92.0338 7.23215 91.3618 6.97615C89.6978 6.33615 88.0658 7.07215 87.5538 8.44815C87.0418 9.69615 87.6178 11.0722 88.9938 11.7762C88.0658 13.4082 87.5858 15.4242 87.5858 17.8562C87.5858 24.5762 91.4258 28.3202 97.6338 28.3202ZM97.5698 15.9042C96.6738 15.9042 95.9698 15.7762 95.2338 15.4882C95.6818 14.1442 96.5778 13.6642 97.8898 13.6642C99.0418 13.6642 99.7778 14.0802 99.7778 14.7842C99.7778 15.5522 99.0418 15.9042 97.5698 15.9042ZM112.233 32.1602C108.873 32.1602 107.657 30.7522 107.657 28.7682V26.1122C107.625 25.9202 107.625 25.7602 107.625 25.5682C107.625 24.5122 107.977 23.6482 108.617 22.7522C108.969 19.6162 109.161 16.6082 109.193 13.8562V11.8082L109.161 10.6882V10.4962C109.161 8.19215 110.377 6.72015 113.065 6.72015C114.665 6.72015 115.817 7.26415 116.553 8.35215C117.993 7.23215 119.721 6.72015 121.897 6.72015C126.601 6.72015 129.321 9.24815 129.321 14.2402C129.321 17.4402 129.449 19.9362 129.865 22.7522C130.537 23.6482 130.857 24.4802 130.857 25.5682C130.857 25.7602 130.857 25.9202 130.825 26.1122V28.7682C130.825 30.7522 129.609 32.1602 126.249 32.1602C120.649 32.1602 120.521 28.5762 120.521 24.2882V22.7522L120.489 21.0882L120.521 18.8162C120.361 18.3682 120.009 18.1442 119.433 18.1442C118.921 18.1442 118.409 18.3042 117.929 18.5602V20.4482L117.897 23.0402V23.6482C117.897 24.9282 117.897 26.2722 117.833 27.5842C117.737 30.5282 115.977 32.1602 112.233 32.1602ZM112.233 28.3202C115.561 28.3202 117.097 26.9122 117.193 24.3522C117.321 21.1202 117.289 17.9522 117.129 15.1362C117.833 14.5922 118.601 14.3042 119.433 14.3042C120.841 14.3042 121.385 15.1362 121.289 16.8002C121.129 19.8722 121.097 22.1762 121.289 24.3522C121.513 26.9122 122.921 28.3202 126.249 28.3202C129.129 28.3202 130.185 27.1682 130.185 25.5682C130.185 24.6082 129.865 23.8402 129.225 23.0082C128.777 20.1282 128.649 17.5042 128.649 14.2402C128.649 9.69615 126.185 7.39215 121.897 7.39215C119.529 7.39215 117.833 8.00015 116.361 9.37615C115.817 8.06415 114.729 7.39215 113.065 7.39215C110.761 7.39215 109.769 8.67215 109.833 10.6562C109.961 14.3042 109.769 18.5282 109.257 23.0082C108.617 23.8402 108.297 24.6082 108.297 25.5682C108.297 27.1682 109.353 28.3202 112.233 28.3202ZM140.829 32.1602C135.005 32.1602 131.133 28.1922 131.133 21.0562V18.9442C131.101 18.5922 131.101 18.2402 131.101 17.8562C131.101 10.7202 134.973 6.72015 140.829 6.72015C141.821 6.72015 142.813 6.84815 143.645 7.10415L143.997 3.84015C144.317 1.37615 145.757 0.000150681 148.189 0.000150681C150.845 0.000150681 151.997 1.40815 151.997 3.96815L151.965 4.51215V7.16815L151.837 11.1362C151.837 14.9762 151.997 18.9122 152.413 22.7522C153.053 23.6482 153.405 24.5122 153.405 25.5682C153.405 25.7602 153.405 25.9522 153.373 26.1122V28.7682C153.373 30.7522 152.221 32.1602 148.925 32.1602C147.261 32.1602 146.045 31.8402 145.117 31.2002C143.901 31.8402 142.493 32.1602 140.829 32.1602ZM140.829 28.3202C142.525 28.3202 143.997 27.9682 145.181 27.2322C145.981 27.9362 147.229 28.3202 148.925 28.3202C151.741 28.3202 152.733 27.1682 152.733 25.5682C152.733 24.6082 152.413 23.8402 151.773 23.0082C151.069 16.6082 151.037 10.0162 151.325 3.93615C151.421 1.95215 150.429 0.672152 148.189 0.672152C146.141 0.672152 144.925 1.82415 144.669 3.93615L144.253 8.00015C143.261 7.58415 142.109 7.39215 140.829 7.39215C135.389 7.39215 131.773 11.1362 131.773 17.8562C131.773 24.5762 135.389 28.3202 140.829 28.3202ZM141.469 21.6002C139.933 21.6002 139.133 20.3522 139.133 17.8562C139.133 15.3602 139.933 14.1122 141.469 14.1122C142.973 14.1122 143.773 15.2962 143.805 17.6642V18.1122C143.741 20.4482 142.941 21.6002 141.469 21.6002ZM141.469 20.9282C142.237 20.9282 142.749 20.3842 142.973 19.3922C142.717 18.4322 142.205 17.9522 141.469 17.9522C140.701 17.9522 140.189 18.4322 139.965 19.3922C140.189 20.4162 140.701 20.9282 141.469 20.9282ZM163.168 32.1602C156.8 32.1602 153.696 29.7602 153.696 25.0562V22.6562C153.664 22.4002 153.664 22.1442 153.664 21.8562C153.664 20.0642 154.112 18.5922 155.008 17.4722L154.624 16.7362C154.432 16.1922 154.304 15.6802 154.304 15.2002V12.4482L154.272 12.0002C154.272 10.4322 155.296 9.15215 157.152 8.32015C159.68 7.20015 161.472 6.72015 164.736 6.72015C170.592 6.72015 174.144 10.1762 174.144 16.1602C174.144 19.0402 174.272 20.2882 174.56 22.7522C175.2 23.6482 175.552 24.5122 175.552 25.5682C175.552 25.7602 175.552 25.9202 175.52 26.1122V28.7682C175.52 30.7522 174.304 32.1602 170.944 32.1602C169.568 32.1602 168.448 31.9042 167.616 31.4882C166.336 31.9362 164.896 32.1602 163.168 32.1602ZM163.168 28.3202C164.928 28.3202 166.432 28.0642 167.648 27.5842C168.448 28.0642 169.536 28.3202 170.944 28.3202C173.824 28.3202 174.88 27.1682 174.88 25.5682C174.88 24.6082 174.56 23.8402 173.92 23.0082C173.6 20.4482 173.472 19.1042 173.472 16.1602C173.472 10.5922 170.176 7.39215 164.736 7.39215C161.6 7.39215 159.872 7.84015 157.44 8.92815C155.328 9.88815 154.464 11.4242 155.232 13.2802C155.904 14.9442 156.96 15.3602 158.688 14.6882C160.672 13.9202 162.016 13.6002 163.552 13.6002C164.96 13.6002 165.696 14.1442 165.952 15.6482C165.12 15.4882 164.192 15.3922 163.168 15.3922C157.216 15.3922 154.336 17.5682 154.336 21.8562C154.336 26.1442 157.216 28.3202 163.168 28.3202ZM163.808 23.4562C162.464 23.4562 161.696 22.9122 161.696 21.6962C161.696 20.4802 162.464 19.9362 163.808 19.9362C165.152 19.9362 165.92 20.4802 165.92 21.6962C165.92 22.9122 165.152 23.4562 163.808 23.4562ZM180.236 32.1602C176.876 32.1602 175.66 30.7522 175.66 28.7682V26.1122C175.628 25.9202 175.628 25.7602 175.628 25.5682C175.628 24.5122 175.98 23.6482 176.62 22.7522C176.908 19.8082 177.068 16.8642 177.068 13.8882V11.7122L177.036 10.6882V10.4962C177.036 8.19215 178.252 6.72015 180.94 6.72015C182.444 6.72015 183.564 7.20015 184.3 8.16015C185.644 7.16815 187.212 6.72015 189.004 6.72015C191.5 6.72015 194.956 7.84015 194.956 10.8482C194.956 11.0082 194.956 11.1682 194.924 11.3282V14.0482C194.924 14.8162 194.668 15.6802 194.156 16.5442C193.036 18.4642 191.98 19.0402 190.668 19.0402C189.804 19.0402 189.164 18.7202 188.364 18.2722C187.756 17.9202 187.244 17.8242 186.668 17.8242C186.348 17.8242 186.092 17.8882 185.836 18.0162L185.9 21.7282L185.868 24.3522V24.9282L185.836 27.5522C185.708 30.4642 183.948 32.1602 180.236 32.1602ZM180.236 28.3202C183.564 28.3202 185.132 26.9122 185.196 24.3522C185.292 20.9602 185.196 17.5682 184.972 14.6562C185.484 14.2082 186.028 13.9842 186.668 13.9842C187.372 13.9842 187.948 14.1122 188.684 14.5282C189.388 14.9122 189.964 15.2002 190.668 15.2002C191.756 15.2002 192.62 14.7522 193.612 13.0242C194.572 11.3602 194.508 9.88815 193.356 8.80015C192.3 7.80815 190.924 7.39215 189.004 7.39215C187.084 7.39215 185.484 7.93615 184.108 9.15215C183.532 7.96815 182.508 7.39215 180.94 7.39215C178.636 7.39215 177.644 8.67215 177.708 10.6562C177.836 14.3042 177.708 18.5282 177.26 23.0082C176.62 23.8402 176.3 24.6082 176.3 25.5682C176.3 27.1682 177.356 28.3202 180.236 28.3202Z" fill="#ED962A"/>
</svg>
